<svg xmlns="http://www.w3.org/2000/svg" xmlns:xlink="http://www.w3.org/1999/xlink" width="500" zoomAndPan="magnify" viewBox="0 0 375 374.999991" height="500" preserveAspectRatio="xMidYMid meet" version="1.0"><defs><g/></defs><g fill="#00ffff" fill-opacity="1"><g transform="translate(121.265212, 231.56866)"><g><path d="M 3.78125 0 L 3.78125 -1.265625 C 7.394531 -1.265625 10.019531 -2.359375 11.65625 -4.546875 C 13.300781 -6.734375 14.332031 -10.304688 14.75 -15.265625 C 15.175781 -20.222656 15.390625 -26.828125 15.390625 -35.078125 L 15.390625 -91.09375 C 15.390625 -99.425781 15.175781 -106.050781 14.75 -110.96875 C 14.332031 -115.882812 13.300781 -119.4375 11.65625 -121.625 C 10.019531 -123.8125 7.394531 -124.90625 3.78125 -124.90625 L 3.78125 -126.171875 L 13.875 -126.171875 C 20.519531 -126.171875 26.660156 -126.585938 32.296875 -127.421875 C 37.929688 -128.265625 43.523438 -128.6875 49.078125 -128.6875 C 58.835938 -128.6875 67.289062 -126.921875 74.4375 -123.390625 C 81.59375 -119.859375 87.546875 -115.019531 92.296875 -108.875 C 97.046875 -102.738281 100.578125 -95.738281 102.890625 -87.875 C 105.203125 -80.007812 106.359375 -71.742188 106.359375 -63.078125 C 106.359375 -54.421875 105.203125 -46.160156 102.890625 -38.296875 C 100.578125 -30.429688 97.046875 -23.425781 92.296875 -17.28125 C 87.546875 -11.144531 81.59375 -6.3125 74.4375 -2.78125 C 67.289062 0.75 58.835938 2.515625 49.078125 2.515625 C 43.523438 2.515625 37.929688 2.09375 32.296875 1.25 C 26.660156 0.414062 20.519531 0 13.875 0 Z M 26.125 -123.390625 L 26.125 -2.78125 C 29.820312 -1.6875 33.519531 -0.820312 37.21875 -0.1875 C 40.914062 0.4375 44.828125 0.75 48.953125 0.75 C 56.773438 0.75 63.585938 -0.929688 69.390625 -4.296875 C 75.191406 -7.660156 80.023438 -12.304688 83.890625 -18.234375 C 87.765625 -24.160156 90.671875 -30.972656 92.609375 -38.671875 C 94.546875 -46.367188 95.515625 -54.503906 95.515625 -63.078125 C 95.515625 -71.660156 94.546875 -79.800781 92.609375 -87.5 C 90.671875 -95.195312 87.765625 -102.007812 83.890625 -107.9375 C 80.023438 -113.863281 75.191406 -118.507812 69.390625 -121.875 C 63.585938 -125.238281 56.773438 -126.921875 48.953125 -126.921875 C 44.828125 -126.921875 40.914062 -126.625 37.21875 -126.03125 C 33.519531 -125.445312 29.820312 -124.566406 26.125 -123.390625 Z M 26.125 -123.390625 "/></g></g></g><g fill="#00ffff" fill-opacity="1"><g transform="translate(143.208554, 261.816868)"><g><path d="M 3.78125 -22.078125 C 3.78125 -27.296875 5 -31.984375 7.4375 -36.140625 C 9.882812 -40.304688 13.019531 -44.09375 16.84375 -47.5 C 20.664062 -50.90625 24.722656 -54.015625 29.015625 -56.828125 C 33.304688 -59.648438 37.363281 -62.257812 41.1875 -64.65625 C 45.019531 -67.050781 48.15625 -69.34375 50.59375 -71.53125 C 53.03125 -73.71875 54.25 -75.90625 54.25 -78.09375 C 54.25 -79.269531 53.953125 -80.128906 53.359375 -80.671875 C 52.773438 -81.222656 52.0625 -81.5 51.21875 -81.5 C 49.707031 -81.5 48.296875 -80.820312 46.984375 -79.46875 C 45.679688 -78.125 44.398438 -76.585938 43.140625 -74.859375 C 41.878906 -73.140625 40.515625 -71.609375 39.046875 -70.265625 C 37.578125 -68.921875 35.957031 -68.25 34.1875 -68.25 C 32.425781 -68.25 31.351562 -68.960938 30.96875 -70.390625 C 30.59375 -71.828125 30.695312 -73.34375 31.28125 -74.9375 C 33.21875 -79.976562 34.984375 -84.664062 36.578125 -89 C 38.179688 -93.332031 39.757812 -97.535156 41.3125 -101.609375 C 42.875 -105.691406 44.472656 -109.921875 46.109375 -114.296875 C 47.742188 -118.671875 49.570312 -123.460938 51.59375 -128.671875 L 52.859375 -128.671875 L 93.234375 -22.078125 C 96.003906 -15.179688 98.609375 -9.988281 101.046875 -6.5 C 103.484375 -3.007812 106.640625 -1.265625 110.515625 -1.265625 L 110.515625 0 L 69.140625 0 L 69.140625 -1.265625 C 73.585938 -1.265625 76.96875 -1.851562 79.28125 -3.03125 C 81.601562 -4.207031 83.097656 -5.847656 83.765625 -7.953125 C 84.441406 -10.054688 84.523438 -12.492188 84.015625 -15.265625 C 83.515625 -18.035156 82.675781 -21.019531 81.5 -24.21875 L 65.859375 -65.46875 C 66.359375 -61.4375 66.609375 -56.394531 66.609375 -50.34375 C 66.609375 -40.164062 65.03125 -31.082031 61.875 -23.09375 C 58.726562 -15.101562 54.1875 -8.835938 48.25 -4.296875 C 42.320312 0.242188 35.15625 2.515625 26.75 2.515625 C 21.863281 2.515625 17.71875 1.378906 14.3125 -0.890625 C 10.90625 -3.160156 8.296875 -6.164062 6.484375 -9.90625 C 4.679688 -13.644531 3.78125 -17.703125 3.78125 -22.078125 Z M 14.515625 -24.46875 C 14.515625 -18.582031 16.28125 -13.617188 19.8125 -9.578125 C 23.34375 -5.546875 28.175781 -3.53125 34.3125 -3.53125 C 39.613281 -3.53125 44.195312 -4.957031 48.0625 -7.8125 C 51.9375 -10.675781 55.15625 -14.421875 57.71875 -19.046875 C 60.28125 -23.671875 62.191406 -28.71875 63.453125 -34.1875 C 64.710938 -39.65625 65.34375 -44.953125 65.34375 -50.078125 C 65.34375 -54.796875 65.195312 -59.003906 64.90625 -62.703125 C 64.613281 -66.398438 63.878906 -70.097656 62.703125 -73.796875 L 47.4375 -114.046875 L 32.921875 -75.4375 C 32.085938 -73.25 31.859375 -71.710938 32.234375 -70.828125 C 32.609375 -69.953125 33.300781 -69.515625 34.3125 -69.515625 C 35.738281 -69.515625 37.125 -70.1875 38.46875 -71.53125 C 39.820312 -72.875 41.171875 -74.40625 42.515625 -76.125 C 43.859375 -77.851562 45.265625 -79.390625 46.734375 -80.734375 C 48.210938 -82.085938 49.789062 -82.765625 51.46875 -82.765625 C 52.644531 -82.765625 53.632812 -82.363281 54.4375 -81.5625 C 55.238281 -80.757812 55.640625 -79.519531 55.640625 -77.84375 C 55.640625 -75.0625 54.648438 -72.515625 52.671875 -70.203125 C 50.691406 -67.890625 48.144531 -65.640625 45.03125 -63.453125 C 41.925781 -61.265625 38.601562 -58.953125 35.0625 -56.515625 C 31.53125 -54.078125 28.207031 -51.363281 25.09375 -48.375 C 21.988281 -45.394531 19.445312 -41.96875 17.46875 -38.09375 C 15.5 -34.226562 14.515625 -29.6875 14.515625 -24.46875 Z M 14.515625 -24.46875 "/></g></g></g></svg>